<?xml version="1.0" standalone="no"?>
<!DOCTYPE svg PUBLIC "-//W3C//DTD SVG 20010904//EN"
 "http://www.w3.org/TR/2001/REC-SVG-20010904/DTD/svg10.dtd">
<svg version="1.0" xmlns="http://www.w3.org/2000/svg"
 width="700.000000pt" height="700.000000pt" viewBox="0 0 700.000000 700.000000"
 preserveAspectRatio="xMidYMid meet">
<metadata>
Created by potrace 1.11, written by Peter Selinger 2001-2013
</metadata>
<g transform="translate(0.000000,700.000000) scale(0.100000,-0.100000)"
fill="#000000" stroke="none">
<path d="M0 3500 l0 -3500 3500 0 3500 0 0 3500 0 3500 -3500 0 -3500 0 0
-3500z m5071 2429 c69 -33 133 -97 168 -169 22 -47 26 -68 26 -146 0 -89 -1
-94 -47 -185 -61 -122 -77 -167 -84 -249 l-7 -68 119 -119 c66 -65 152 -162
192 -214 84 -110 189 -284 228 -376 26 -61 28 -63 63 -63 178 0 359 -147 407
-330 20 -76 20 -691 0 -765 -44 -166 -175 -291 -343 -325 -29 -6 -53 -16 -53
-21 0 -5 -7 -9 -15 -9 -9 0 -37 -44 -71 -112 -121 -241 -216 -370 -443 -600
-241 -245 -251 -265 -261 -513 -6 -153 -9 -176 -32 -225 -31 -68 -91 -131
-160 -167 l-53 -28 -460 0 -460 0 -55 26 c-110 52 -176 148 -194 281 l-10 79
-71 -3 -70 -3 -6 -70 c-8 -97 -40 -164 -105 -224 -99 -91 -99 -91 -599 -91
-496 0 -499 0 -594 86 -76 68 -101 129 -112 270 -11 153 -31 228 -89 349 -37
76 -69 123 -132 194 -46 52 -107 125 -136 162 -198 258 -412 721 -414 899 -3
193 230 293 368 159 37 -36 51 -66 95 -207 37 -120 153 -353 244 -492 35 -52
110 -149 167 -215 57 -66 120 -145 140 -176 93 -143 157 -312 185 -488 l17
-111 267 0 267 0 4 128 c5 140 21 189 75 232 58 46 69 47 441 44 l352 -2 45
-27 c85 -49 114 -122 115 -282 l0 -93 269 0 268 0 7 98 c12 172 66 330 163
474 27 41 117 142 209 233 243 243 356 412 441 660 51 150 100 186 268 194
l110 6 0 275 0 275 -110 6 c-64 3 -125 12 -145 21 -53 23 -104 86 -135 169
-95 252 -227 446 -442 646 -63 60 -123 124 -133 143 -56 111 -65 371 -18 528
l25 84 -25 -7 c-46 -11 -143 -64 -196 -106 -28 -22 -78 -73 -111 -112 -74 -87
-125 -118 -198 -119 -131 -1 -221 88 -221 218 0 73 24 119 116 226 190 220
540 382 813 375 62 -2 92 -8 136 -28z m-1483 -260 c32 -6 65 -23 92 -47 110
-93 106 -252 -8 -339 -47 -36 -53 -37 -292 -52 -440 -29 -790 -146 -1103 -368
-105 -74 -296 -265 -370 -370 -141 -198 -245 -425 -307 -671 -13 -51 -59 -106
-114 -135 -39 -21 -56 -22 -294 -25 -272 -4 -330 3 -388 42 -114 77 -127 249
-27 337 62 54 85 59 276 59 l174 0 43 113 c155 408 436 775 783 1022 137 97
232 151 379 217 277 124 597 198 932 218 72 4 141 8 153 8 12 1 44 -3 71 -9z
m1214 -1255 c51 -17 108 -67 135 -117 12 -21 18 -55 18 -103 0 -61 -4 -77 -30
-120 -19 -30 -49 -60 -79 -79 -43 -26 -59 -30 -121 -30 -62 0 -78 4 -121 30
-30 19 -60 49 -79 79 -26 43 -30 59 -30 120 1 81 15 116 71 170 63 61 150 80
236 50z"/>
</g>
</svg>
